<svg xmlns="http://www.w3.org/2000/svg" viewBox="0 0 409.6 403.29"><g id="Слой_2" data-name="Слой 2"><g id="Слой_1-2" data-name="Слой 1"><path d="M204.8,0C91.7,0,0,91.7,0,204.8c0,96,66.08,176.26,155.17,198.49a29.83,29.83,0,0,1-1.57-10v-35H127.86c-14,0-26.47-6-32.51-17.22-6.71-12.44-7.87-31.47-24.49-43.11-4.93-3.87-1.18-8.29,4.51-7.7,10.49,3,19.2,10.18,27.39,20.86s12,13.12,27.24,13.12a195.38,195.38,0,0,0,28.86-2.06c5.59-14.22,15.27-27.31,27.1-33.49-68.2-7-100.75-40.94-100.75-87,0-19.83,8.45-39,22.8-55.18-4.71-16-10.63-48.76,1.81-61.22,30.69,0,49.24,19.9,53.7,25.28a154.87,154.87,0,0,1,99.6,0c4.4-5.34,23-25.31,53.72-25.31,12.5,12.48,6.51,45.33,1.74,61.34,14.27,16.13,22.67,35.26,22.67,55.06,0,46-32.5,79.94-100.59,87,18.74,9.78,32.41,37.25,32.41,58v46.66a30.68,30.68,0,0,1-.6,4.57c79.8-28,137.13-103.75,137.13-193.11C409.6,91.7,317.9,0,204.8,0Z"/></g></g></svg>