<?xml version="1.0" encoding="utf-8"?>
<!-- Generator: Adobe Illustrator 26.1.0, SVG Export Plug-In . SVG Version: 6.00 Build 0)  -->
<svg version="1.1" id="Слой_1" xmlns="http://www.w3.org/2000/svg" xmlns:xlink="http://www.w3.org/1999/xlink" x="0px" y="0px"
	 viewBox="0 0 64 64" style="enable-background:new 0 0 64 64;" xml:space="preserve">
<path d="M32,8C18.7,8,8,18.9,8,32.4c0,11.4,7.7,21,18.2,23.6c-0.1-0.3-0.2-0.7-0.2-1.2v-4.2c-1,0-2.6,0-3,0c-1.6,0-3.1-0.7-3.8-2
	c-0.8-1.5-0.9-3.7-2.9-5.1c-0.6-0.5-0.1-1,0.5-0.9c1.2,0.4,2.3,1.2,3.2,2.5c1,1.3,1.4,1.6,3.2,1.6c0.9,0,2.2-0.1,3.4-0.2
	c0.7-1.7,1.8-3.3,3.2-4C21.8,41.5,18,37.5,18,32c0-2.4,1-4.6,2.7-6.6c-0.6-1.9-1.2-5.8,0.2-7.3c3.6,0,5.8,2.4,6.3,3
	c1.8-0.6,3.8-1,5.8-1c2.1,0,4,0.4,5.8,1c0.5-0.6,2.7-3,6.3-3c1.5,1.5,0.8,5.4,0.2,7.3C47,27.4,48,29.7,48,32
	c0,5.5-3.8,9.5-11.8,10.4c2.2,1.2,3.8,4.4,3.8,6.9v5.6c0,0.2,0,0.4-0.1,0.5C49.3,52,56,43,56,32.4C56,18.9,45.3,8,32,8z"/>
</svg>
