<?xml version="1.0" encoding="utf-8"?>
<!-- Generator: Adobe Illustrator 26.1.0, SVG Export Plug-In . SVG Version: 6.00 Build 0)  -->
<svg version="1.1" id="Слой_1" xmlns="http://www.w3.org/2000/svg" xmlns:xlink="http://www.w3.org/1999/xlink" x="0px" y="0px"
	 viewBox="0 0 64 64" style="enable-background:new 0 0 64 64;" xml:space="preserve">
<path d="M55,20.4c-0.6-2.1-2.2-3.7-4.2-4.3c-3.7-1-18.8-1-18.8-1s-15,0-18.8,1c-2.1,0.6-3.7,2.2-4.2,4.3C8,24.2,8,32,8,32
	s0,7.9,1,11.6c0.6,2.1,2.2,3.6,4.2,4.2c3.7,1,18.8,1,18.8,1s15,0,18.8-1c2.1-0.6,3.7-2.1,4.2-4.2c1-3.8,1-11.6,1-11.6
	S56,24.2,55,20.4L55,20.4z M27.1,39.2V24.9L39.6,32L27.1,39.2L27.1,39.2z"/>
</svg>
