<?xml version="1.0" encoding="utf-8"?>
<!-- Generator: Adobe Illustrator 26.1.0, SVG Export Plug-In . SVG Version: 6.00 Build 0)  -->
<svg version="1.1" id="Слой_1" xmlns="http://www.w3.org/2000/svg" xmlns:xlink="http://www.w3.org/1999/xlink" x="0px" y="0px"
	 viewBox="0 0 64 64" style="enable-background:new 0 0 64 64;" xml:space="preserve">
<style type="text/css">
	.st0{fill:#29B6F6;}
</style>
<path class="st0" d="M32,8C18.7,8,8,18.7,8,32s10.7,24,24,24s24-10.7,24-24S45.3,8,32,8z M43.9,21.2l-4.5,23c0,0-0.2,1-1.5,1
	c-0.7,0-1-0.3-1-0.3l-9.7-8.1l0,0l0,0L39,25.9c0.3-0.2,0.3-0.6,0.1-0.8c-0.2-0.3-0.6-0.3-0.8-0.1l-15.8,9.5l0,0l-6.1-1.6
	c0,0-1.1-0.3-1.1-1.2c0-0.8,1.1-1.1,1.1-1.1l25.6-10.2c0,0,0.8-0.3,1.4-0.3c0.4,0,0.8,0.1,0.8,0.6C44,20.9,43.9,21.2,43.9,21.2z"/>
</svg>
