<?xml version="1.0" encoding="utf-8"?>
<!-- Generator: Adobe Illustrator 26.1.0, SVG Export Plug-In . SVG Version: 6.00 Build 0)  -->
<svg version="1.1" id="Слой_1" xmlns="http://www.w3.org/2000/svg" xmlns:xlink="http://www.w3.org/1999/xlink" x="0px" y="0px"
	 viewBox="0 0 64 64" style="enable-background:new 0 0 64 64;" xml:space="preserve">
<path d="M49.3,19.5c-4.2-3-10.7-3.5-11-3.5c-0.4,0-0.9,0.2-1,0.6c0,0-0.4,1-0.7,1.9c4.8,0.8,8.1,2.5,8.3,2.5
	c0.8,0.4,1.1,1.4,0.6,2.1c-0.3,0.5-0.9,0.8-1.5,0.8c-0.3,0-0.6-0.1-0.9-0.2c0,0-4.9-2.5-11.1-2.5c-6.3,0-11.1,2.5-11.1,2.5
	c-0.8,0.4-1.9,0.2-2.3-0.6c-0.5-0.7-0.2-1.7,0.6-2.1c0.2-0.1,3.5-1.8,8.3-2.6c-0.4-0.9-0.8-1.9-0.8-1.9c-0.2-0.4-0.6-0.6-1-0.6
	c-0.3,0-6.8,0.5-11.1,3.6C12.4,21.4,8,32.1,8,41.4c0,0.2,0,0.3,0.1,0.5c3,4.8,11.3,6.1,13.2,6.1c0,0,0,0,0,0c0.3,0,0.6-0.1,0.8-0.4
	l2-2.5c-4.5-1-6.8-2.5-7-2.6c-0.8-0.5-0.9-1.5-0.4-2.2c0.6-0.7,1.6-0.8,2.4-0.3c0.1,0,4.4,2.8,12.7,2.8c8.3,0,12.7-2.8,12.7-2.8
	c0.8-0.5,1.8-0.3,2.4,0.3c0.6,0.7,0.4,1.6-0.4,2.2c-0.1,0.1-2.5,1.6-7,2.6l2,2.5c0.2,0.2,0.5,0.4,0.8,0.4c0,0,0,0,0,0
	c1.9-0.1,10.2-1.3,13.2-6.1c0.1-0.1,0.1-0.3,0.1-0.5C56,32.1,51.6,21.4,49.3,19.5z M25.1,38.2c-1.9,0-3.4-1.7-3.4-3.9
	c0-2.1,1.5-3.9,3.4-3.9c1.9,0,3.4,1.7,3.4,3.9C28.6,36.5,27,38.2,25.1,38.2z M38.9,38.2c-1.9,0-3.4-1.7-3.4-3.9
	c0-2.1,1.5-3.9,3.4-3.9s3.4,1.7,3.4,3.9C42.3,36.5,40.8,38.2,38.9,38.2z"/>
</svg>
