<?xml version="1.0" encoding="utf-8"?>
<!-- Generator: Adobe Illustrator 26.1.0, SVG Export Plug-In . SVG Version: 6.00 Build 0)  -->
<svg version="1.1" id="Слой_1" xmlns="http://www.w3.org/2000/svg" xmlns:xlink="http://www.w3.org/1999/xlink" x="0px" y="0px"
	 viewBox="0 0 512 512" style="enable-background:new 0 0 512 512;" xml:space="preserve">
<style type="text/css">
	.st0{fill:#29B6F6;}
</style>
<path class="st0" d="M256,42.7C138.2,42.7,42.7,138.2,42.7,256S138.2,469.3,256,469.3S469.3,373.8,469.3,256S373.8,42.7,256,42.7z
	 M362.1,160l-40,204c0,0-1.7,9.3-13.3,9.3c-6.1,0-9.3-2.9-9.3-2.9L213,298.6l0,0l0,0l104.9-97c2.3-1.8,2.8-5.1,1-7.5
	c-1.8-2.3-5.1-2.8-7.5-1l-140.7,84.2l-0.1,0l-54.3-14.5c0,0-9.7-2.8-9.7-10.8c0-6.7,10-9.8,10-9.8L344,151.8c0,0,6.9-2.5,12-2.5
	c3.1,0,6.7,1.3,6.7,5.3C362.7,157.3,362.1,160,362.1,160z"/>
</svg>
