<svg xmlns="http://www.w3.org/2000/svg" viewBox="0 0 48 32"><g id="Слой_2" data-name="Слой 2"><g id="Слой_1-2" data-name="Слой 1"><path d="M41.35,3.55C37.19.54,30.62,0,30.34,0a1.06,1.06,0,0,0-1,.56s-.37,1-.73,1.9A29.31,29.31,0,0,1,36.87,5a1.47,1.47,0,0,1,.61,2.12,1.84,1.84,0,0,1-2.34.55A26.84,26.84,0,0,0,24,5.18,26.9,26.9,0,0,0,12.86,7.67a1.81,1.81,0,0,1-2.34-.56A1.47,1.47,0,0,1,11.14,5a29.13,29.13,0,0,1,8.31-2.55c-.38-.94-.75-1.88-.76-1.89a1,1,0,0,0-1-.56C17.38,0,10.81.53,6.6,3.59,4.4,5.42,0,16.14,0,25.41a.86.86,0,0,0,.14.47c3,4.81,11.31,6.06,13.2,6.12h0a1.07,1.07,0,0,0,.84-.39l2-2.49a22.06,22.06,0,0,1-7-2.59,1.46,1.46,0,0,1-.37-2.17A1.85,1.85,0,0,1,11.29,24c.07,0,4.43,2.79,12.71,2.79S36.66,24.06,36.71,24a1.84,1.84,0,0,1,2.39.34,1.45,1.45,0,0,1-.37,2.15,21.52,21.52,0,0,1-7,2.59l2,2.5a1.07,1.07,0,0,0,.84.39h0c1.89-.06,10.17-1.32,13.2-6.12a.92.92,0,0,0,.14-.47C48,16.14,43.6,5.42,41.35,3.55ZM17.14,22.19a3.67,3.67,0,0,1-3.43-3.87,3.67,3.67,0,0,1,3.43-3.87,3.66,3.66,0,0,1,3.43,3.87A3.66,3.66,0,0,1,17.14,22.19Zm13.72,0a3.66,3.66,0,0,1-3.43-3.87,3.66,3.66,0,0,1,3.43-3.87,3.67,3.67,0,0,1,3.43,3.87A3.67,3.67,0,0,1,30.86,22.19Z"/></g></g></svg>