<svg xmlns="http://www.w3.org/2000/svg" viewBox="0 0 48 48"><defs><style>.cls-1{fill:#29b6f6;}</style></defs><g id="Слой_2" data-name="Слой 2"><g id="Слой_1-2" data-name="Слой 1"><ellipse class="cls-1" cx="19.97" cy="25.73" rx="2.3" ry="2.88"/><ellipse class="cls-1" cx="28.03" cy="25.73" rx="2.3" ry="2.88"/><path class="cls-1" d="M24,0A24,24,0,1,0,48,24,24,24,0,0,0,24,0Zm5.89,34.37L28.83,33a13,13,0,0,0,5.64-3.77c-2.12,1.59-5.31,2.89-10.47,2.89s-8.35-1.3-10.47-2.89A13,13,0,0,0,19.17,33l-1.06,1.42A12.39,12.39,0,0,1,9.6,30.48c.57-9.44,3.93-14.27,3.93-14.27a13.9,13.9,0,0,1,6.54-2.58l.31.63a13,13,0,0,0-6.2,3.26c2.64-1.34,5.26-2.74,9.82-2.74s7.18,1.4,9.82,2.74a12.68,12.68,0,0,0-6.2-3.26l.31-.63a13.86,13.86,0,0,1,6.54,2.58S37.83,21,38.4,30.48A12.39,12.39,0,0,1,29.89,34.37Z"/></g></g></svg>