<svg xmlns="http://www.w3.org/2000/svg" viewBox="0 0 48 48"><defs><style>.cls-1{fill:#29b6f6;}</style></defs><g id="Слой_2" data-name="Слой 2"><g id="Слой_1-2" data-name="Слой 1"><path class="cls-1" d="M24,0A24,24,0,1,0,48,24,24,24,0,0,0,24,0ZM35.94,13.2l-4.5,23A1.39,1.39,0,0,1,30,37.2a1.62,1.62,0,0,1-1.05-.33l-9.73-8.08h0L31,17.88a.6.6,0,0,0-.72-1L14.41,26.39h0L8.29,24.76S7.2,24.45,7.2,23.55s1.12-1.11,1.12-1.11L33.9,12.28A5,5,0,0,1,35.25,12c.35,0,.75.15.75.6A3.51,3.51,0,0,1,35.94,13.2Z"/></g></g></svg>