<?xml version="1.0" encoding="utf-8"?>
<!-- Generator: Adobe Illustrator 26.1.0, SVG Export Plug-In . SVG Version: 6.00 Build 0)  -->
<svg version="1.1" id="Слой_1" xmlns="http://www.w3.org/2000/svg" xmlns:xlink="http://www.w3.org/1999/xlink" x="0px" y="0px"
	 viewBox="0 0 48 48" style="enable-background:new 0 0 48 48;" xml:space="preserve">
<path fill="#1976D2" d="M48,41.3c0,3.7-3,6.7-6.7,6.7H6.7C3,48,0,45,0,41.3V6.7C0,3,3,0,6.7,0h34.7C45,0,48,3,48,6.7V41.3z"/>
<path fill="#FFFFFF" d="M39.9,16.1c0.1-0.2,0.1-0.4,0.1-0.6c0-0.5-0.4-0.8-1.1-0.8h-3.5c-0.9,0-1.3,0.5-1.5,1.1c0,0-2.2,4.5-4.7,7.4
	C28.4,24,27.9,24,27.5,24c-0.2,0-0.8-0.3-0.8-1.1V16c0-0.9-0.2-1.4-1-1.4h-6.2c-0.5,0-0.8,0.4-0.8,0.9c0,0.9,1.2,1.1,1.3,3.6v4.8
	c0,1.2-0.2,1.4-0.6,1.4c-1.2,0-3.5-4-5.1-9.2c-0.3-1-0.7-1.4-1.6-1.4H9.2c-1,0-1.2,0.5-1.2,1c0,1,0.8,6.2,5.2,12.1
	c3.2,4.3,7.3,6.8,11,6.8c2.2,0,2.5-0.6,2.5-1.5v-4c0-1.1,0.2-1.2,1-1.2c0.5,0,1.5,0.3,3.5,2.7c2.3,2.7,2.7,4,4,4h3.5
	c0.8,0,1.3-0.3,1.3-1c0-0.2,0-0.4-0.1-0.6c-0.3-0.8-1.4-2.6-2.9-4.4c-0.8-1-1.6-2-2-2.5c-0.2-0.3-0.3-0.6-0.3-0.8
	c0-0.2,0.1-0.5,0.3-0.8C35,24.5,39.5,18.2,39.9,16.1z"/>
</svg>
