<svg xmlns="http://www.w3.org/2000/svg" viewBox="0 0 48 48"><defs><style>.cls-1{fill:#29b6f6;}</style></defs><g id="Слой_2" data-name="Слой 2"><g id="Слой_1-2" data-name="Слой 1"><path class="cls-1" d="M24,0A24,24,0,1,0,48,24,24,24,0,0,0,24,0ZM39.33,31.37A3.86,3.86,0,0,1,36.5,34c-2.49.64-12.5.64-12.5.64s-10,0-12.5-.64a3.86,3.86,0,0,1-2.83-2.66A37.88,37.88,0,0,1,8,24a37.88,37.88,0,0,1,.67-7.35A3.92,3.92,0,0,1,11.5,14C14,13.33,24,13.33,24,13.33s10,0,12.5.64a3.92,3.92,0,0,1,2.83,2.7A37.88,37.88,0,0,1,40,24,37.88,37.88,0,0,1,39.33,31.37Z"/><polygon class="cls-1" points="21.57 28 29.57 24 21.57 20 21.57 28"/></g></g></svg>