<svg xmlns="http://www.w3.org/2000/svg" viewBox="0 0 38.4 37.81"><g id="Слой_2" data-name="Слой 2"><g id="Слой_1-2" data-name="Слой 1"><path d="M19.2,0a19.19,19.19,0,0,0-4.65,37.81,2.79,2.79,0,0,1-.15-.93V33.59H12A3.34,3.34,0,0,1,8.94,32c-.63-1.17-.74-2.95-2.3-4-.46-.37-.11-.78.43-.72a5,5,0,0,1,2.56,2,2.48,2.48,0,0,0,2.56,1.23,18.69,18.69,0,0,0,2.7-.19,6.06,6.06,0,0,1,2.54-3.14C11,26.41,8,23.23,8,18.91a7.81,7.81,0,0,1,2.14-5.17c-.45-1.5-1-4.57.17-5.74a6.71,6.71,0,0,1,5,2.37,14.55,14.55,0,0,1,9.34,0A6.66,6.66,0,0,1,29.7,8c1.18,1.17.61,4.25.17,5.75A7.88,7.88,0,0,1,32,18.91c0,4.32-3,7.5-9.43,8.16a6.71,6.71,0,0,1,3,5.43v4.38a2.65,2.65,0,0,1-.06.42A19.19,19.19,0,0,0,19.2,0Z"/></g></g></svg>