<svg xmlns="http://www.w3.org/2000/svg" viewBox="0 0 48 48"><g id="Слой_2" data-name="Слой 2"><g id="Слой_1-2" data-name="Слой 1"><path d="M24,0A24.19,24.19,0,0,0,0,24.38,24.28,24.28,0,0,0,18.18,48,3.66,3.66,0,0,1,18,46.82V42.65H15a4.17,4.17,0,0,1-3.81-2c-.78-1.48-.92-3.75-2.87-5.13-.57-.46-.13-1,.53-.92A6.34,6.34,0,0,1,12,37a3.07,3.07,0,0,0,3.19,1.57,22.06,22.06,0,0,0,3.39-.25,7.59,7.59,0,0,1,3.17-4C13.8,33.53,10,29.49,10,24a10.07,10.07,0,0,1,2.67-6.57c-.55-1.91-1.25-5.8.21-7.28a8.33,8.33,0,0,1,6.29,3,17.82,17.82,0,0,1,5.83-1,17.62,17.62,0,0,1,5.84,1,8.32,8.32,0,0,1,6.3-3c1.46,1.48.76,5.39.2,7.3A10,10,0,0,1,40,24c0,5.48-3.81,9.51-11.79,10.35,2.2,1.17,3.8,4.44,3.8,6.9v5.56a4.17,4.17,0,0,1-.07.54A24.34,24.34,0,0,0,48,24.38,24.19,24.19,0,0,0,24,0Z"/></g></g></svg>